<svg width="72" height="72" viewBox="0 0 72 72" fill="none" xmlns="http://www.w3.org/2000/svg">
<path d="M59.7528 48.1131L51.8304 56.4272C51.6593 56.6085 51.4502 56.7517 51.2173 56.8519C50.9845 56.9522 50.7373 56.9999 50.4855 56.9999H12.9219C12.7413 56.9999 12.5655 56.9474 12.4181 56.8519C12.2661 56.7565 12.152 56.6181 12.0807 56.4558C12.0094 56.2935 11.9857 56.1169 12.0189 55.9451C12.0474 55.7733 12.133 55.611 12.2518 55.4822L20.1837 47.1681C20.3548 46.9867 20.5639 46.8435 20.792 46.7481C21.0249 46.6478 21.272 46.6001 21.5239 46.6001H59.0827C59.2633 46.6001 59.4391 46.6526 59.5864 46.7481C59.7385 46.8435 59.8526 46.9819 59.9239 47.1442C59.9952 47.3065 60.0189 47.4831 59.9857 47.6549C59.9524 47.8267 59.8716 47.989 59.7528 48.1178V48.1131ZM51.8304 31.3703C51.6593 31.189 51.4502 31.0458 51.2173 30.9456C50.9845 30.8453 50.7373 30.7976 50.4855 30.7976H12.9219C12.7413 30.7976 12.5655 30.8501 12.4181 30.9456C12.2661 31.041 12.152 31.1794 12.0807 31.3417C12.0094 31.504 11.9857 31.6806 12.0189 31.8524C12.0474 32.0242 12.133 32.1865 12.2518 32.3153L20.1837 40.6294C20.3548 40.8108 20.5639 40.954 20.792 41.0494C21.0249 41.1497 21.272 41.1974 21.5239 41.1974H59.0827C59.2633 41.1974 59.4391 41.1449 59.5864 41.0494C59.7385 40.954 59.8526 40.8156 59.9239 40.6533C59.9952 40.491 60.0189 40.3144 59.9857 40.1426C59.9571 39.9708 59.8716 39.8085 59.7528 39.6797L51.8304 31.3656V31.3703ZM12.9219 25.3997H50.4855C50.7373 25.3997 50.9892 25.3472 51.2173 25.2517C51.4502 25.1515 51.6593 25.0083 51.8304 24.8269L59.7528 16.5128C59.8763 16.384 59.9571 16.2265 59.9857 16.0499C60.0142 15.8781 59.9952 15.7015 59.9239 15.5392C59.8526 15.3769 59.7338 15.2433 59.5864 15.1431C59.4344 15.0476 59.2633 14.9951 59.0827 14.9951H21.5191C21.2672 14.9951 21.0201 15.0476 20.7872 15.1431C20.5544 15.2433 20.35 15.3865 20.1789 15.5631L12.247 23.8867C12.1235 24.0156 12.0427 24.1731 12.0142 24.3497C11.9857 24.5215 12.0047 24.6981 12.076 24.8603C12.1472 25.0226 12.2661 25.1563 12.4134 25.2565C12.5607 25.3519 12.7365 25.4044 12.9171 25.4044L12.9219 25.3997Z" fill="url(#paint0_linear_100_35295)"/>
<defs>
<linearGradient id="paint0_linear_100_35295" x1="16.6336" y1="58.5081" x2="55.0631" y2="14.2261" gradientUnits="userSpaceOnUse">
<stop offset="0.08" stop-color="#9945FF"/>
<stop offset="0.3" stop-color="#8752F3"/>
<stop offset="0.5" stop-color="#5497D5"/>
<stop offset="0.6" stop-color="#43B4CA"/>
<stop offset="0.72" stop-color="#28E0B9"/>
<stop offset="0.97" stop-color="#19FB9B"/>
</linearGradient>
</defs>
</svg>
